Coordinates
version=1
nRows=14
nColumns=40
inDegrees=yes

Units are S.I. units (second, meters, Newtons, ...)
Angles are in degrees.

endheader
time	pelvis_tilt	pelvis_list	pelvis_rotation	pelvis_tx	pelvis_ty	pelvis_tz	hip_flexion_r	hip_adduction_r	hip_rotation_r	knee_angle_r	knee_angle_r_beta	ankle_angle_r	subtalar_angle_r	mtp_angle_r	hip_flexion_l	hip_adduction_l	hip_rotation_l	knee_angle_l	knee_angle_l_beta	ankle_angle_l	subtalar_angle_l	mtp_angle_l	lumbar_extension	lumbar_bending	lumbar_rotation	arm_flex_r	arm_add_r	arm_rot_r	elbow_flex_r	pro_sup_r	wrist_flex_r	wrist_dev_r	arm_flex_l	arm_add_l	arm_rot_l	elbow_flex_l	pro_sup_l	wrist_flex_l	wrist_dev_l
     41.50000000	     -5.97108255	     -5.47615532	      5.27000147	      1.00682389	      0.93010794	      0.47582105	     13.05687065	      4.11459589	    -18.44016285	     13.47209462	     13.47209462	      8.64933571	     -1.27716017	     -3.41496589	     34.90800158	    -11.09013235	      4.34552457	     65.79980160	     65.79980160	      8.61066175	    -19.00877786	     14.87384267	    -10.55008478	      6.08340313	      3.46187122	     14.34618045	    -18.94922346	      4.81656002	     49.19554142	     45.05650800	      0.00000000	      0.00000000	     11.60790319	     -8.25846026	     -2.59540803	     42.35242591	     45.21872798	      0.00000000	      0.00000000
     41.51214286	     -6.13011511	     -5.43612055	      5.40456251	      1.00526973	      0.93032399	      0.47679444	     12.38146865	      4.29059422	    -18.54746801	     12.64467036	     12.64467036	      8.72191528	     -0.83877997	     -3.40859053	     36.39362221	    -11.05412388	      3.96611478	     63.60184767	     63.60184767	      9.13304519	    -19.01378987	     15.28017407	    -10.62513434	      5.92242161	      3.23272446	     16.91376286	    -18.85654129	      4.74613794	     50.65337935	     45.02810280	      0.00000000	      0.00000000	     10.33859880	     -8.17790694	     -2.32274425	     40.19810550	     45.18893274	      0.00000000	      0.00000000
     41.52428571	     -6.30115825	     -5.36278578	      5.52236365	      1.00365711	      0.93037250	      0.47762259	     11.91023134	      4.34673876	    -18.72527984	     12.19852472	     12.19852472	      8.84716096	     -0.47711903	     -3.67793529	     37.66134744	    -10.90481398	      3.58563745	     61.07693875	     61.07693875	      9.58029226	    -19.02416203	     15.85714003	    -10.65108597	      5.76655041	      3.49198196	     19.15214783	    -19.40595110	      5.59022243	     52.27478679	     44.97202283	      0.00000000	      0.00000000	     10.20666986	     -7.69550045	     -1.92642812	     35.79927183	     45.21850671	      0.00000000	      0.00000000
     41.53642857	     -6.43727460	     -5.33428020	      5.64715994	      1.00214796	      0.93038711	      0.47840630	     11.39808185	      4.47614799	    -18.78046502	     11.72956174	     11.72956174	      9.00921431	     -0.29635427	     -3.70033723	     38.66019745	    -10.76184939	      3.22429478	     58.20304461	     58.20304461	      9.80575397	    -19.00286670	     16.07896245	    -10.77947002	      5.66468137	      3.29315813	     21.62889614	    -19.35296259	      5.44882493	     53.93258650	     44.94128576	      0.00000000	      0.00000000	      8.94655749	     -7.56988828	     -1.74701039	     33.99771659	     45.20382935	      0.00000000	      0.00000000
     41.54857143	     -6.58498562	     -5.29238281	      5.74066765	      1.00071401	      0.93035566	      0.47907270	     10.90732246	      4.57132551	    -18.87478718	     11.27865223	     11.27865223	      9.17074149	     -0.00164863	     -3.76197913	     39.42752749	    -10.55226886	      2.85813272	     54.99718966	     54.99718966	      9.92607233	    -18.93674206	     16.26901708	    -10.88743503	      5.55663216	      3.22019592	     24.00298483	    -19.36241147	      5.45450080	     55.46163138	     44.90863420	      0.00000000	      0.00000000	      7.88839193	     -7.38458892	     -1.52539625	     31.97241970	     45.18458822	      0.00000000	      0.00000000
     41.56071429	     -6.74729875	     -5.25435606	      5.78874017	      0.99943819	      0.93019208	      0.47957493	     10.43316850	      4.63718821	    -19.07892987	     10.85825821	     10.85825821	      9.34369006	      0.52883746	     -3.93801509	     39.96719828	    -10.28071922	      2.54772788	     51.48265848	     51.48265848	      9.83273751	    -18.83922148	     15.81063030	    -10.90560739	      5.45779072	      3.49981047	     26.08462132	    -19.80240075	      6.01961109	     57.17839162	     44.86932101	      0.00000000	      0.00000000	      7.59773082	     -6.97017961	     -1.16365560	     28.40088089	     45.21602752	      0.00000000	      0.00000000
     41.57285714	     -6.92701942	     -5.20311762	      5.79496100	      0.99824212	      0.92995967	      0.47997527	     10.00206678	      4.69961548	    -19.05568982	     10.47769852	     10.47769852	      9.52765589	      0.74243169	     -3.98753680	     40.33823074	     -9.93069733	      2.31685217	     47.75420407	     47.75420407	      9.93403118	    -18.61327018	     16.05009116	    -10.93899202	      5.33595786	      3.56391522	     28.28340602	    -19.72264365	      5.76113137	     58.52580625	     44.84860617	      0.00000000	      0.00000000	      6.31513014	     -6.82374486	     -1.06449256	     27.42458365	     45.19261359	      0.00000000	      0.00000000
     41.58500000	     -7.09069503	     -5.23634993	      5.79825648	      0.99722152	      0.92960814	      0.48020144	      9.54080377	      4.83435022	    -19.14706624	     10.08394821	     10.08394821	      9.73002517	      1.12678977	     -4.07863558	     40.55112120	     -9.61283838	      2.22334400	     43.86658382	     43.86658382	      9.96604601	    -18.16680981	     16.04844341	    -10.95090328	      5.35133163	      3.51116908	     30.47071518	    -19.51493957	      5.59907731	     60.02076798	     44.81940120	      0.00000000	      0.00000000	      5.01466067	     -6.67940579	     -0.91750247	     26.32300017	     45.16150632	      0.00000000	      0.00000000
     41.59714286	     -7.23367710	     -5.36149059	      5.78999625	      0.99639460	      0.92906965	      0.48028656	      9.05123180	      5.02171110	    -19.54836354	      9.71187552	      9.71187552	     10.00163675	      2.06074073	     -4.19287179	     40.49340677	     -9.41201933	      2.10849779	     39.62605688	     39.62605688	      8.97819571	    -17.64132546	     13.01718220	    -10.94842531	      5.48613309	      3.62494839	     32.35347500	    -19.68776456	      5.91859341	     62.24582636	     44.78861454	      0.00000000	      0.00000000	      4.04461127	     -6.47644437	     -0.25481160	     24.59792938	     45.11923136	      0.00000000	      0.00000000
     41.60928571	     -7.38748278	     -5.43824238	      5.70238416	      0.99571523	      0.92850925	      0.48032618	      8.60219375	      5.19285193	    -19.50067072	      9.39795419	      9.39795419	     10.23600417	      2.32620823	     -4.28663302	     40.39289977	     -9.18072729	      2.00790487	     35.58686386	     35.58686386	      9.23963305	    -16.45275277	     13.27943524	    -10.87290561	      5.53800896	      3.76046638	     34.33954359	    -19.46326024	      5.66995542	     63.51907647	     44.76903699	      0.00000000	      0.00000000	      2.70712464	     -6.28999144	     -0.14079677	     24.01530150	     45.08343292	      0.00000000	      0.00000000
     41.62142857	     -7.49158305	     -5.59118736	      5.61669611	      0.99526156	      0.92785738	      0.48017687	      8.06587834	      5.43136533	    -19.55498293	      9.04616222	      9.04616222	     10.47027279	      2.82042560	     -4.38886362	     40.16070686	     -9.03766546	      1.90275536	     31.65066043	     31.65066043	      9.49779146	    -14.96422296	     13.33056447	    -10.87904676	      5.73870018	      3.69913523	     36.27367571	    -19.04887885	      5.49145539	     65.06509372	     44.73861265	      0.00000000	      0.00000000	      1.25548812	     -6.15390385	      0.01943975	     23.50459947	     45.03578587	      0.00000000	      0.00000000
     41.63357143	     -7.53851863	     -5.85073864	      5.54267821	      0.99508280	      0.92705539	      0.47992905	      7.41308072	      5.77815725	    -19.82521495	      8.62622354	      8.62622354	     10.76052570	      3.72601093	     -4.45231215	     39.86053226	     -9.04825377	      1.71029391	     27.97385862	     27.97385862	      9.58639459	    -13.14559454	     12.86226457	    -10.89913508	      6.04683719	      3.52812061	     38.10997553	    -18.53329597	      5.40935911	     67.12984183	     44.69782649	      0.00000000	      0.00000000	     -0.40815736	     -6.04153819	      0.41733320	     23.53633945	     44.94254534	      0.00000000	      0.00000000
     41.64571429	     -7.65625073	     -6.05581808	      5.42195998	      0.99503412	      0.92610851	      0.47957666	      6.96709369	      6.03987414	    -19.77463759	      8.47975315	      8.47975315	     11.11038729	      3.92207761	     -4.58003995	     39.56361069	     -8.99601873	      1.41575840	     24.59532629	     24.59532629	      9.73095979	    -11.56308891	     13.21243546	    -10.70290506	      6.30440207	      3.89135320	     39.76299576	    -18.42321716	      5.22509313	     68.16779150	     44.68168486	      0.00000000	      0.00000000	     -1.63924482	     -5.80465607	      0.55090046	     23.30981409	     44.89740435	      0.00000000	      0.00000000
     41.65785714	     -7.64302548	     -6.23358786	      5.27749545	      0.99526786	      0.92528505	      0.47907940	      6.29480497	      6.28860026	    -19.71244111	      8.22248083	      8.22248083	     11.43973542	      4.32455590	     -4.66308493	     39.10900173	     -8.96803510	      0.93379691	     21.66787238	     21.66787238	      9.83662396	     -9.98637122	     13.58818189	    -10.67109778	      6.52571352	      3.94164124	     41.33503177	    -17.96415050	      5.09744146	     69.53488205	     44.65253989	      0.00000000	      0.00000000	     -3.02877924	     -5.64900850	      0.71752913	     23.11896335	     44.84123966	      0.00000000	      0.00000000
